<?xml version="1.0" standalone="no"?>
<!DOCTYPE svg PUBLIC "-//W3C//DTD SVG 20010904//EN"
 "http://www.w3.org/TR/2001/REC-SVG-20010904/DTD/svg10.dtd">
<svg version="1.0" xmlns="http://www.w3.org/2000/svg"
 width="611.000000pt" height="528.000000pt" viewBox="0 0 611.000000 528.000000"
 preserveAspectRatio="xMidYMid meet">

<g transform="translate(0.000000,528.000000) scale(0.100000,-0.100000)"
fill="#000000" stroke="none">
<path d="M2494 4898 c6 -544 -5 -672 -84 -983 -230 -901 -789 -1762 -1555
-2400 -162 -135 -249 -199 -568 -419 -158 -110 -284 -202 -280 -206 4 -4 217
-204 472 -444 l464 -436 41 33 c68 54 376 365 487 492 474 544 888 1175 1274
1940 118 236 314 662 367 801 12 30 25 51 29 47 9 -9 92 -158 561 -997 180
-324 327 -591 325 -593 -2 -2 -82 6 -178 16 -336 38 -656 62 -1041 77 l-167 6
-5 -23 c-4 -22 -57 -999 -56 -1044 0 -19 7 -20 163 -21 374 -4 907 -74 1405
-184 405 -90 780 -213 1177 -385 105 -45 200 -85 213 -89 21 -7 37 21 292 539
149 301 270 549 270 551 0 3 -165 87 -368 187 -449 223 -545 285 -771 502
-541 520 -1009 1483 -1202 2475 -21 104 -23 155 -28 525 l-6 410 -617 3 -618
2 4 -382z"/>
</g>
</svg>
